<svg width="19" height="19" viewBox="0 0 19 19" fill="none" xmlns="http://www.w3.org/2000/svg">
<path d="M18.208 5.54224C16.8126 5.46546 15.4282 5.82817 14.2497 6.57932C13.9647 6.25474 13.6718 5.93015 13.363 5.6214L13.1335 5.40765L13.2443 5.31265C13.6314 4.98032 13.9073 4.53723 14.0347 4.04317C14.1621 3.5491 14.1349 3.02785 13.9568 2.54974C13.6994 2.00996 13.2909 1.55654 12.7807 1.24455C12.2706 0.932555 11.6808 0.775422 11.083 0.792237V2.37557C11.3647 2.37165 11.6423 2.44295 11.8873 2.58211C12.1322 2.72127 12.3355 2.92326 12.4764 3.16724C12.611 3.4839 12.4764 3.83224 12.1043 4.20432L11.9222 4.37057C11.0965 3.68243 10.1899 3.09756 9.22262 2.6289C7.2197 1.7264 6.19053 2.14599 5.68387 2.6289C5.52978 2.78391 5.40624 2.96653 5.3197 3.16724L5.1772 3.58682L4.0372 7.02265C4.9397 9.27099 7.1247 13.2689 11.8747 14.9947L15.833 13.6806C15.9665 13.6309 16.0841 13.5461 16.1735 13.4352L16.3397 13.2927C17.4718 12.1527 16.7435 9.95974 15.2235 7.83015C16.126 7.30342 17.1652 7.05809 18.208 7.12557V5.54224ZM15.2076 12.1685H15.1601C14.6139 12.4614 12.3497 11.7172 9.7847 9.15224C9.51553 8.88307 9.2622 8.62182 9.03262 8.36057C8.95345 8.27349 8.8822 8.17849 8.80303 8.08349L8.38345 7.57682L8.16179 7.26807C8.05095 7.11765 7.94012 6.96724 7.84512 6.82474C7.75012 6.68224 7.71845 6.6189 7.65512 6.51599C7.59178 6.41307 7.48095 6.24682 7.4097 6.11224C7.33845 5.97765 7.30678 5.92224 7.25928 5.81932C7.21178 5.7164 7.1247 5.59765 7.0772 5.48682C7.0297 5.37599 7.00595 5.30474 6.96637 5.21765C6.92678 5.13057 6.87928 5.0039 6.84762 4.90099C6.81595 4.79807 6.80803 4.75057 6.7922 4.6714C6.77637 4.59224 6.7447 4.4814 6.72887 4.40224C6.72506 4.33896 6.72506 4.27551 6.72887 4.21224C6.72141 4.14383 6.72141 4.07481 6.72887 4.0064L6.81595 3.76099C6.95053 3.61849 7.53637 3.5789 8.58137 4.0539C9.27926 4.39028 9.93995 4.7989 10.5526 5.27307C10.2188 5.41993 9.86306 5.51087 9.4997 5.54224V7.12557C10.3409 7.07884 11.1572 6.82307 11.8747 6.3814L12.2626 6.74557C12.611 7.08599 12.9197 7.4264 13.2047 7.75099C12.7268 8.5647 12.5371 9.51577 12.6664 10.4506L14.2497 10.1418C14.1957 9.84341 14.1957 9.53773 14.2497 9.23932C15.271 10.7989 15.461 11.9231 15.2076 12.1685ZM3.48303 8.7089L1.71762 14.0131C1.5902 14.4025 1.55674 14.8165 1.61999 15.2214C1.68323 15.6262 1.84138 16.0103 2.0815 16.3423C2.32163 16.6743 2.63691 16.9448 3.00158 17.1316C3.36626 17.3184 3.76996 17.4163 4.1797 17.4172C4.44907 17.4148 4.71631 17.3693 4.97137 17.2827L10.133 15.5647C7.21981 14.0769 4.88138 11.6661 3.48303 8.7089Z" fill="white"/>
</svg>
