<svg width="478" height="460" viewBox="0 0 478 460" fill="none" xmlns="http://www.w3.org/2000/svg">
<g clip-path="url(#clip0_441_781)">
<path d="M55.9999 271.135C182.354 271.135 284.784 171.01 284.784 47.5009C284.784 -76.0086 182.354 -176.133 55.9999 -176.133C-70.354 -176.133 -172.784 -76.0086 -172.784 47.5009C-172.784 171.01 -70.354 271.135 55.9999 271.135Z" stroke="#E53F0B" stroke-opacity="0.2" stroke-width="2"/>
<path d="M317.18 47.9172C317.18 188.686 200.437 302.803 56.4259 302.803C-87.5851 302.803 -204.328 188.686 -204.328 47.9172C-204.328 -92.8505 -87.5851 -206.967 56.4259 -206.967C200.437 -206.967 317.18 -92.8505 317.18 47.9172Z" stroke="#E53F0B" stroke-opacity="0.18" stroke-width="2"/>
<path d="M56.0004 333.634C217.667 333.634 348.724 205.527 348.724 47.4995C348.724 -110.528 217.667 -238.635 56.0004 -238.635C-105.667 -238.635 -236.724 -110.528 -236.724 47.4995C-236.724 205.527 -105.667 333.634 56.0004 333.634Z" stroke="#E53F0B" stroke-opacity="0.16" stroke-width="2"/>
<path d="M381.12 47.9163C381.12 223.203 235.749 365.301 56.4259 365.301C-122.898 365.301 -268.268 223.203 -268.268 47.9163C-268.268 -127.369 -122.898 -269.467 56.4259 -269.467C235.749 -269.467 381.12 -127.369 381.12 47.9163Z" stroke="#E53F0B" stroke-opacity="0.14" stroke-width="2"/>
<path d="M412.663 47.4991C412.663 240.044 252.98 396.133 56.0001 396.133C-140.979 396.133 -300.663 240.044 -300.663 47.4991C-300.663 -145.047 -140.979 -301.135 56.0001 -301.135C252.98 -301.135 412.663 -145.047 412.663 47.4991Z" stroke="#E53F0B" stroke-opacity="0.12" stroke-width="2"/>
<path d="M445.059 47.9179C445.059 257.722 271.062 427.802 56.4259 427.802C-158.21 427.802 -332.207 257.722 -332.207 47.9179C-332.207 -161.888 -158.21 -331.967 56.4259 -331.967C271.062 -331.967 445.059 -161.888 445.059 47.9179Z" stroke="#E53F0B" stroke-opacity="0.1" stroke-width="2"/>
<path d="M56.0001 458.633C288.293 458.633 476.603 274.562 476.603 47.4993C476.603 -179.564 288.293 -363.635 56.0001 -363.635C-176.292 -363.635 -364.603 -179.564 -364.603 47.4993C-364.603 274.562 -176.292 458.633 56.0001 458.633Z" stroke="#E53F0B" stroke-opacity="0.08" stroke-width="2"/>
</g>
<defs>
<clipPath id="clip0_441_781">
<rect width="844" height="825" fill="white" transform="translate(-366 -365)"/>
</clipPath>
</defs>
</svg>
