<svg width="48" height="48" viewBox="0 0 48 48" fill="white" xmlns="http://www.w3.org/2000/svg">
<path d="M10.25 10C8.5924 10 7.00268 10.6585 5.83058 11.8306C4.65848 13.0027 4 14.5924 4 16.25V31.75C4 33.4076 4.65848 34.9973 5.83058 36.1694C7.00268 37.3415 8.5924 38 10.25 38H37.75C39.4076 38 40.9973 37.3415 42.1694 36.1694C43.3415 34.9973 44 33.4076 44 31.75V16.25C44 14.5924 43.3415 13.0027 42.1694 11.8306C40.9973 10.6585 39.4076 10 37.75 10H10.25ZM6.5 16.25C6.5 15.2554 6.89509 14.3016 7.59835 13.5983C8.30161 12.8951 9.25544 12.5 10.25 12.5H37.75C38.7446 12.5 39.6984 12.8951 40.4016 13.5983C41.1049 14.3016 41.5 15.2554 41.5 16.25V31.75C41.5 32.7446 41.1049 33.6984 40.4016 34.4016C39.6984 35.1049 38.7446 35.5 37.75 35.5H10.25C9.25544 35.5 8.30161 35.1049 7.59835 34.4016C6.89509 33.6984 6.5 32.7446 6.5 31.75V16.25ZM12.134 20.366C11.8995 20.1315 11.5816 19.9998 11.25 19.9998C10.9184 19.9998 10.6005 20.1315 10.366 20.366C10.1315 20.6005 9.99984 20.9184 9.99984 21.25C9.99984 21.5816 10.1315 21.8995 10.366 22.134L12.232 24L10.366 25.866C10.1315 26.1005 9.99984 26.4184 9.99984 26.75C9.99984 27.0816 10.1315 27.3995 10.366 27.634C10.6005 27.8685 10.9184 28.0002 11.25 28.0002C11.5816 28.0002 11.8995 27.8685 12.134 27.634L14 25.768L15.866 27.634C16.1005 27.8685 16.4184 28.0002 16.75 28.0002C17.0816 28.0002 17.3995 27.8685 17.634 27.634C17.8685 27.3995 18.0002 27.0816 18.0002 26.75C18.0002 26.4184 17.8685 26.1005 17.634 25.866L15.768 24L17.634 22.134C17.8685 21.8995 18.0002 21.5816 18.0002 21.25C18.0002 20.9184 17.8685 20.6005 17.634 20.366C17.3995 20.1315 17.0816 19.9998 16.75 19.9998C16.4184 19.9998 16.1005 20.1315 15.866 20.366L14 22.232L12.134 20.366ZM21.366 20.366C21.4821 20.2499 21.6199 20.1578 21.7716 20.0949C21.9232 20.0321 22.0858 19.9998 22.25 19.9998C22.4142 19.9998 22.5768 20.0321 22.7284 20.0949C22.8801 20.1578 23.0179 20.2499 23.134 20.366L25 22.232L26.866 20.366C27.1005 20.1315 27.4184 19.9998 27.75 19.9998C28.0816 19.9998 28.3995 20.1315 28.634 20.366C28.8685 20.6005 29.0002 20.9184 29.0002 21.25C29.0002 21.5816 28.8685 21.8995 28.634 22.134L26.768 24L28.634 25.866C28.8685 26.1005 29.0002 26.4184 29.0002 26.75C29.0002 27.0816 28.8685 27.3995 28.634 27.634C28.3995 27.8685 28.0816 28.0002 27.75 28.0002C27.4184 28.0002 27.1005 27.8685 26.866 27.634L25 25.768L23.134 27.634C22.8995 27.8685 22.5816 28.0002 22.25 28.0002C21.9184 28.0002 21.6005 27.8685 21.366 27.634C21.1315 27.3995 20.9998 27.0816 20.9998 26.75C20.9998 26.4184 21.1315 26.1005 21.366 25.866L23.232 24L21.366 22.134C21.2499 22.0179 21.1578 21.8801 21.0949 21.7284C21.0321 21.5768 20.9998 21.4142 20.9998 21.25C20.9998 21.0858 21.0321 20.9232 21.0949 20.7716C21.1578 20.6199 21.2499 20.4821 21.366 20.366ZM33.25 25.5C32.9185 25.5 32.6005 25.6317 32.3661 25.8661C32.1317 26.1005 32 26.4185 32 26.75C32 27.0815 32.1317 27.3995 32.3661 27.6339C32.6005 27.8683 32.9185 28 33.25 28H37.75C38.0815 28 38.3995 27.8683 38.6339 27.6339C38.8683 27.3995 39 27.0815 39 26.75C39 26.4185 38.8683 26.1005 38.6339 25.8661C38.3995 25.6317 38.0815 25.5 37.75 25.5H33.25Z" fill="white"/>
</svg>
