<svg width="28" height="28" viewBox="0 0 28 28" fill="none" xmlns="http://www.w3.org/2000/svg">
<path d="M18.5846 2.91351C18.3519 2.65507 18.069 2.44675 17.7531 2.30125C17.4373 2.15575 17.0951 2.07613 16.7475 2.06724C16.3998 2.05835 16.054 2.12038 15.7312 2.24955C15.4083 2.37871 15.1151 2.5723 14.8696 2.81851L2.80055 14.8865C2.55659 15.1304 2.36439 15.4211 2.23547 15.7411C2.10655 16.0612 2.04357 16.4039 2.05029 16.7488C2.05701 17.0938 2.13331 17.4338 2.2746 17.7485C2.41589 18.0633 2.61927 18.3463 2.87255 18.5805L4.24755 19.8515C4.96155 20.5115 5.93955 20.3645 6.53755 20.1215C6.83101 20.0023 7.15236 19.9691 7.46398 20.0259C7.7756 20.0827 8.06459 20.2271 8.29711 20.4422C8.52963 20.6573 8.69605 20.9342 8.77689 21.2405C8.85772 21.5467 8.84963 21.8697 8.75355 22.1715C8.55855 22.7865 8.48755 23.7735 9.20155 24.4335L10.2216 25.3775C10.7045 25.8249 11.3414 26.0691 11.9997 26.0592C12.658 26.0493 13.2872 25.7862 13.7566 25.3245L25.2846 14.0025C25.756 13.5394 26.0303 12.9121 26.0502 12.2515C26.0702 11.5909 25.8342 10.9482 25.3916 10.4575L24.3166 9.26551C23.6816 8.56251 22.7246 8.60151 22.1166 8.77151C21.8177 8.85482 21.5015 8.85319 21.2036 8.76679C20.9056 8.68039 20.6376 8.51264 20.4297 8.28238C20.2217 8.05212 20.0821 7.76846 20.0264 7.46324C19.9708 7.15803 20.0013 6.84334 20.1146 6.55451C20.3466 5.96551 20.4836 5.01751 19.8486 4.31451L18.5846 2.91351Z" fill="white"/>
</svg>
