<svg width="48" height="48" viewBox="0 0 48 48" fill="none" xmlns="http://www.w3.org/2000/svg">
<mask id="mask0_626_731" style="mask-type:luminance" maskUnits="userSpaceOnUse" x="4" y="2" width="42" height="42">
<path d="M6 41.9997L14.674 17.2637L31 34.0377L6 41.9997Z" fill="#555555" stroke="white" stroke-width="4" stroke-linejoin="round"/>
<path d="M23 19L28 14C30.6667 11.3333 31 9 29 7M29 25L34 20C37.3333 16.6667 40.6667 16.6667 44 20" stroke="white" stroke-width="4" stroke-linecap="round" stroke-linejoin="round"/>
<path d="M20 7C20.5304 7 21.0391 6.78929 21.4142 6.41421C21.7893 6.03914 22 5.53043 22 5C22 4.46957 21.7893 3.96086 21.4142 3.58579C21.0391 3.21071 20.5304 3 20 3C19.4696 3 18.9609 3.21071 18.5858 3.58579C18.2107 3.96086 18 4.46957 18 5C18 5.53043 18.2107 6.03914 18.5858 6.41421C18.9609 6.78929 19.4696 7 20 7ZM42 6C42.5304 6 43.0391 5.78929 43.4142 5.41421C43.7893 5.03914 44 4.53043 44 4C44 3.46957 43.7893 2.96086 43.4142 2.58579C43.0391 2.21071 42.5304 2 42 2C41.4696 2 40.9609 2.21071 40.5858 2.58579C40.2107 2.96086 40 3.46957 40 4C40 4.53043 40.2107 5.03914 40.5858 5.41421C40.9609 5.78929 41.4696 6 42 6ZM42 29C42.5304 29 43.0391 28.7893 43.4142 28.4142C43.7893 28.0391 44 27.5304 44 27C44 26.4696 43.7893 25.9609 43.4142 25.5858C43.0391 25.2107 42.5304 25 42 25C41.4696 25 40.9609 25.2107 40.5858 25.5858C40.2107 25.9609 40 26.4696 40 27C40 27.5304 40.2107 28.0391 40.5858 28.4142C40.9609 28.7893 41.4696 29 42 29ZM39 38C39.5304 38 40.0391 37.7893 40.4142 37.4142C40.7893 37.0391 41 36.5304 41 36C41 35.4696 40.7893 34.9609 40.4142 34.5858C40.0391 34.2107 39.5304 34 39 34C38.4696 34 37.9609 34.2107 37.5858 34.5858C37.2107 34.9609 37 35.4696 37 36C37 36.5304 37.2107 37.0391 37.5858 37.4142C37.9609 37.7893 38.4696 38 39 38Z" fill="white"/>
</mask>
<g mask="url(#mask0_626_731)">
<path d="M0 0H48V48H0V0Z" fill="white"/>
</g>
</svg>
