<svg width="26" height="26" viewBox="0 0 26 26" fill="none" xmlns="http://www.w3.org/2000/svg">
<path d="M11.375 15.4375C11.2144 15.4374 11.0573 15.3897 10.9238 15.3005C10.7903 15.2112 10.6862 15.0843 10.6247 14.9359C10.5632 14.7875 10.5471 14.6242 10.5785 14.4666C10.6098 14.309 10.6871 14.1643 10.8007 14.0507L18.8211 6.03027C18.406 5.8049 17.9411 5.68706 17.4688 5.6875H5.28125C4.52729 5.68831 3.80444 5.98817 3.27131 6.52131C2.73817 7.05444 2.43831 7.77729 2.4375 8.53125V20.7188C2.43831 21.4727 2.73817 22.1956 3.27131 22.7287C3.80444 23.2618 4.52729 23.5617 5.28125 23.5625H17.4688C18.2227 23.5617 18.9456 23.2618 19.4787 22.7287C20.0118 22.1956 20.3117 21.4727 20.3125 20.7188V8.53125C20.3129 8.05893 20.1951 7.59403 19.9697 7.17895L11.9493 15.1993C11.8741 15.275 11.7846 15.335 11.686 15.3758C11.5874 15.4167 11.4817 15.4377 11.375 15.4375Z" fill="white"/>
<path d="M22.75 2.4375H17.0625C16.847 2.4375 16.6403 2.5231 16.488 2.67548C16.3356 2.82785 16.25 3.03451 16.25 3.25C16.25 3.46549 16.3356 3.67215 16.488 3.82452C16.6403 3.9769 16.847 4.0625 17.0625 4.0625H20.7883L18.8211 6.03027C19.3069 6.29416 19.7058 6.69313 19.9697 7.17895L21.9375 5.21168V8.9375C21.9375 9.15299 22.0231 9.35965 22.1755 9.51202C22.3278 9.6644 22.5345 9.75 22.75 9.75C22.9655 9.75 23.1722 9.6644 23.3245 9.51202C23.4769 9.35965 23.5625 9.15299 23.5625 8.9375V3.25C23.5625 3.03451 23.4769 2.82785 23.3245 2.67548C23.1722 2.5231 22.9655 2.4375 22.75 2.4375Z" fill="white"/>
</svg>
