<svg width="17" height="18" viewBox="0 0 17 18" fill="none" xmlns="http://www.w3.org/2000/svg">
<path d="M0.166992 4.81185C0.166992 4.56602 0.166992 4.4431 0.243034 4.36706C0.319075 4.29102 0.441992 4.29102 0.687826 4.29102H16.3128C16.5587 4.29102 16.6816 4.29102 16.7576 4.36706C16.8337 4.4431 16.8337 4.56602 16.8337 4.81185V5.07435C16.8337 5.1681 16.8337 5.21602 16.8191 5.25768C16.8065 5.29358 16.7863 5.32629 16.7597 5.35352C16.7285 5.38477 16.6868 5.4056 16.6024 5.44831C15.9243 5.78685 15.5857 5.95664 15.3389 6.21081C15.128 6.42801 14.9669 6.68857 14.867 6.97435C14.7503 7.30768 14.7503 7.68685 14.7503 8.44518V13.666C14.7503 15.6306 14.7503 16.6118 14.1399 17.2223C13.5295 17.8327 12.5482 17.8327 10.5837 17.8327H6.41699C4.45241 17.8327 3.47116 17.8327 2.86074 17.2223C2.25033 16.6118 2.25033 15.6306 2.25033 13.666V8.44518C2.25033 7.68685 2.25033 7.30768 2.13366 6.97435C2.03371 6.68857 1.87269 6.42801 1.66178 6.21081C1.41491 5.95664 1.07637 5.78685 0.398242 5.44831C0.34143 5.42463 0.288428 5.39269 0.240951 5.35352C0.214399 5.32629 0.194132 5.29358 0.181575 5.25768C0.166992 5.21602 0.166992 5.1681 0.166992 5.07435V4.81185Z" fill="white" fill-opacity="0.25"/>
<path d="M6.48828 1.5516C6.60703 1.44118 6.86849 1.34326 7.23307 1.27347C7.65149 1.19919 8.07583 1.16327 8.50078 1.16618C8.95911 1.16618 9.40495 1.20368 9.76849 1.27347C10.132 1.34326 10.3935 1.44118 10.5133 1.55264" stroke="white" stroke-linecap="round"/>
<path d="M11.6257 8.97786C11.6257 8.69022 11.3925 8.45703 11.1048 8.45703C10.8172 8.45703 10.584 8.69022 10.584 8.97786V14.1862C10.584 14.4738 10.8172 14.707 11.1048 14.707C11.3925 14.707 11.6257 14.4738 11.6257 14.1862V8.97786Z" fill="white"/>
<path d="M6.41667 8.97786C6.41667 8.69022 6.18348 8.45703 5.89583 8.45703C5.60819 8.45703 5.375 8.69022 5.375 8.97786V14.1862C5.375 14.4738 5.60819 14.707 5.89583 14.707C6.18348 14.707 6.41667 14.4738 6.41667 14.1862V8.97786Z" fill="white"/>
</svg>
