<svg width="33" height="29" viewBox="0 0 33 29" fill="none" xmlns="http://www.w3.org/2000/svg">
<path d="M27.7217 5.40652L17.1933 1.89986C16.943 1.81649 16.6765 1.79373 16.4157 1.83345C16.1549 1.87317 15.9073 1.97422 15.6932 2.12831C15.479 2.2824 15.3046 2.48511 15.184 2.71978C15.0635 2.95446 15.0005 3.21438 15 3.47819V25.5215C15.0002 25.7855 15.0631 26.0456 15.1835 26.2805C15.3039 26.5154 15.4783 26.7183 15.6925 26.8726C15.9067 27.0269 16.1544 27.1281 16.4153 27.1679C16.6763 27.2077 16.9429 27.1849 17.1933 27.1015L27.7217 23.5932C28.3851 23.3718 28.9621 22.9474 29.371 22.38C29.7799 21.8126 29.9999 21.1309 30 20.4315V8.56986C30.0003 7.87018 29.7804 7.18815 29.3715 6.6204C28.9626 6.05265 28.3854 5.62797 27.7217 5.40652Z" fill="white" fill-opacity="0.25"/>
<path d="M19.166 10.334L23.3327 14.5007M23.3327 14.5007L19.166 18.6673M23.3327 14.5007H6.66602" stroke="white" stroke-linecap="round"/>
</svg>
