<svg width="24" height="24" viewBox="0 0 24 24" fill="none" xmlns="http://www.w3.org/2000/svg">
<path d="M12 21C16.9706 21 21 16.9706 21 12C21 7.02944 16.9706 3 12 3C7.02944 3 3 7.02944 3 12C3 16.9706 7.02944 21 12 21Z" fill="white" fill-opacity="0.25"/>
<path d="M13 7C13 7.26522 12.8946 7.51957 12.7071 7.70711C12.5196 7.89464 12.2652 8 12 8C11.7348 8 11.4804 7.89464 11.2929 7.70711C11.1054 7.51957 11 7.26522 11 7C11 6.73478 11.1054 6.48043 11.2929 6.29289C11.4804 6.10536 11.7348 6 12 6C12.2652 6 12.5196 6.10536 12.7071 6.29289C12.8946 6.48043 13 6.73478 13 7Z" fill="white"/>
<path d="M12 16.5V11.5C12 11.035 12 10.803 11.949 10.612C11.8808 10.3579 11.747 10.1261 11.5609 9.94009C11.3749 9.75403 11.1431 9.62019 10.889 9.552C10.697 9.5 10.464 9.5 10 9.5M12 16.5H13.5M12 16.5H10.5" stroke="white"/>
</svg>
