<svg width="56" height="57" viewBox="0 0 56 57" fill="none" xmlns="http://www.w3.org/2000/svg">
<path d="M7.24805 20.3848C7.24805 17.1689 7.24805 15.5609 7.77253 14.2934C8.11934 13.4559 8.62777 12.6949 9.26876 12.0539C9.90975 11.4129 10.6708 10.9045 11.5083 10.5577C12.7758 10.0332 14.3837 10.0332 17.5996 10.0332H38.3027C41.5186 10.0332 43.1266 10.0332 44.3941 10.5577C45.2316 10.9045 45.9926 11.4129 46.6336 12.0539C47.2746 12.6949 47.783 13.4559 48.1298 14.2934C48.6543 15.5609 48.6543 17.1689 48.6543 20.3848V22.11C48.6543 22.5676 48.4725 23.0064 48.149 23.33C47.8254 23.6535 47.3866 23.8353 46.929 23.8353H46.354C45.1338 23.8353 43.9636 24.32 43.1008 25.1828C42.238 26.0456 41.7533 27.2158 41.7533 28.436C41.7533 29.6562 42.238 30.8264 43.1008 31.6892C43.9636 32.552 45.1338 33.0367 46.354 33.0367H46.929C47.3866 33.0367 47.8254 33.2184 48.149 33.542C48.4725 33.8655 48.6543 34.3044 48.6543 34.7619V36.4872C48.6543 39.7031 48.6543 41.311 48.1298 42.5785C47.783 43.416 47.2746 44.177 46.6336 44.818C45.9926 45.459 45.2316 45.9675 44.3941 46.3143C43.1266 46.8388 41.5186 46.8388 38.3027 46.8388H17.5996C14.3837 46.8388 12.7758 46.8388 11.5083 46.3143C10.6708 45.9675 9.90975 45.459 9.26876 44.818C8.62777 44.177 8.11934 43.416 7.77253 42.5785C7.24805 41.311 7.24805 39.7031 7.24805 36.4872V34.7619C7.24805 34.3044 7.42981 33.8655 7.75336 33.542C8.07691 33.2184 8.51574 33.0367 8.97331 33.0367H9.54839C10.7686 33.0367 11.9388 32.552 12.8016 31.6892C13.6644 30.8264 14.1491 29.6562 14.1491 28.436C14.1491 27.2158 13.6644 26.0456 12.8016 25.1828C11.9388 24.32 10.7686 23.8353 9.54839 23.8353H8.97331C8.51574 23.8353 8.07691 23.6535 7.75336 23.33C7.42981 23.0064 7.24805 22.5676 7.24805 22.11V20.3848Z" fill="white" fill-opacity="0.25"/>
<path d="M27.0217 20.5038C27.1285 20.3574 27.2683 20.2383 27.4298 20.1562C27.5913 20.0741 27.7699 20.0312 27.9511 20.0312C28.1323 20.0312 28.3109 20.0741 28.4724 20.1562C28.6339 20.2383 28.7737 20.3574 28.8804 20.5038L31.0865 23.5218C31.2286 23.7161 31.4281 23.861 31.6569 23.9359L35.2064 25.1022C35.3781 25.1585 35.5342 25.2546 35.6618 25.3825C35.7895 25.5105 35.8852 25.6667 35.9412 25.8385C35.9973 26.0104 36.012 26.193 35.9842 26.3716C35.9565 26.5502 35.887 26.7198 35.7815 26.8665L33.5938 29.8984C33.4528 30.0932 33.3764 30.3273 33.3753 30.5678L33.3638 34.3058C33.3634 34.4868 33.3204 34.6652 33.2381 34.8264C33.1558 34.9876 33.0366 35.1272 32.8902 35.2336C32.7438 35.3401 32.5744 35.4105 32.3957 35.4392C32.217 35.4678 32.034 35.4539 31.8617 35.3985L28.303 34.2529C28.0742 34.1794 27.828 34.1794 27.5991 34.2529L24.0405 35.3985C23.8682 35.4539 23.6852 35.4678 23.5065 35.4392C23.3278 35.4105 23.1583 35.3401 23.012 35.2336C22.8656 35.1272 22.7464 34.9876 22.6641 34.8264C22.5818 34.6652 22.5387 34.4868 22.5384 34.3058L22.5269 30.5678C22.5258 30.3273 22.4494 30.0932 22.3083 29.8984L20.1207 26.8665C20.0152 26.7198 19.9457 26.5502 19.9179 26.3716C19.8902 26.193 19.9049 26.0104 19.9609 25.8385C20.0169 25.6667 20.1127 25.5105 20.2403 25.3825C20.368 25.2546 20.5241 25.1585 20.6958 25.1022L24.2452 23.9359C24.474 23.861 24.6736 23.7161 24.8157 23.5218L27.0217 20.5038Z" fill="white"/>
</svg>
