<svg width="50" height="50" viewBox="0 0 50 50" fill="none" xmlns="http://www.w3.org/2000/svg">
<g opacity="0.2">
<path fill-rule="evenodd" clip-rule="evenodd" d="M21.8303 11.1524C22.201 10.8433 22.6291 10.6103 23.0899 10.4666C23.5508 10.323 24.0354 10.2715 24.5161 10.3152C24.9969 10.3589 25.4643 10.4968 25.8917 10.7212C26.3191 10.9456 26.6981 11.2519 27.0071 11.6228L35.173 21.4228C35.4956 21.7916 35.7413 22.2213 35.8954 22.6864C36.0496 23.1516 36.1092 23.6428 36.0707 24.1314C36.0322 24.6199 35.8963 25.0957 35.6712 25.531C35.4461 25.9663 35.1362 26.3521 34.7597 26.6658C34.3833 26.9795 33.9479 27.2148 33.4792 27.3577C33.0104 27.5007 32.5179 27.5484 32.0304 27.4982C31.543 27.448 31.0705 27.3008 30.6408 27.0653C30.211 26.8298 29.8327 26.5107 29.5282 26.1268L21.3599 16.3268C20.7363 15.5782 20.4356 14.6125 20.5238 13.6422C20.6121 12.6719 21.082 11.7764 21.8303 11.1524Z" fill="white"/>
<path fill-rule="evenodd" clip-rule="evenodd" d="M21.8299 36.3977C21.0816 35.7737 20.6117 34.8782 20.5235 33.9079C20.4353 32.9376 20.736 31.9719 21.3595 31.2233L29.5278 21.4233C30.1595 20.7012 31.0485 20.2548 32.005 20.1794C32.9614 20.104 33.9094 20.4056 34.6464 21.0198C35.3834 21.634 35.8511 22.5121 35.9494 23.4664C36.0477 24.4208 35.7689 25.3757 35.1726 26.1273L27.0068 35.9273C26.6978 36.2982 26.3188 36.6045 25.8913 36.8289C25.4639 37.0533 24.9965 37.1912 24.5158 37.2349C24.035 37.2786 23.5504 37.2271 23.0896 37.0835C22.6287 36.9398 22.2007 36.7068 21.8299 36.3977Z" fill="white"/>
<path fill-rule="evenodd" clip-rule="evenodd" d="M31.125 23.7762C31.125 24.7508 30.7378 25.6856 30.0486 26.3748C29.3594 27.064 28.4247 27.4512 27.45 27.4512L7.85 27.4512C6.87533 27.4512 5.94058 27.064 5.25138 26.3748C4.56219 25.6856 4.175 24.7508 4.175 23.7762C4.175 22.8015 4.56219 21.8667 5.25138 21.1776C5.94058 20.4884 6.87533 20.1012 7.85 20.1012L27.45 20.1012C28.4247 20.1012 29.3594 20.4884 30.0486 21.1776C30.7378 21.8668 31.125 22.8015 31.125 23.7762Z" fill="white"/>
</g>
<path fill-rule="evenodd" clip-rule="evenodd" d="M28.301 14.2599C28.5506 14.0521 28.8724 13.9518 29.1959 13.9812C29.5193 14.0106 29.8178 14.1673 30.0258 14.4167L38.1916 24.2167C38.3904 24.4672 38.4834 24.7855 38.4506 25.1037C38.4178 25.4218 38.2619 25.7145 38.0163 25.9192C37.7706 26.1239 37.4546 26.2245 37.1358 26.1993C36.817 26.1742 36.5206 26.0254 36.3101 25.7847L28.1442 15.9847C27.9364 15.7352 27.8361 15.4133 27.8655 15.0898C27.8949 14.7664 28.0516 14.4679 28.301 14.2599Z" fill="white"/>
<path fill-rule="evenodd" clip-rule="evenodd" d="M28.301 35.7417C28.0516 35.5337 27.8949 35.2352 27.8655 34.9117C27.8361 34.5883 27.9364 34.2664 28.1442 34.0169L36.3101 24.2169C36.5206 23.9762 36.817 23.8274 37.1358 23.8023C37.4546 23.7771 37.7706 23.8777 38.0163 24.0824C38.2619 24.2871 38.4178 24.5798 38.4506 24.8979C38.4834 25.216 38.3904 25.5344 38.1917 25.7849L30.0258 35.5849C29.8178 35.8343 29.5193 35.991 29.1959 36.0204C28.8724 36.0498 28.5506 35.9495 28.301 35.7417Z" fill="white"/>
<path fill-rule="evenodd" clip-rule="evenodd" d="M37.25 24.9996C37.25 25.3245 37.1209 25.6361 36.8912 25.8658C36.6615 26.0955 36.3499 26.2246 36.025 26.2246L12.75 26.2246C12.4251 26.2246 12.1135 26.0955 11.8838 25.8658C11.6541 25.6361 11.525 25.3245 11.525 24.9996C11.525 24.6747 11.6541 24.3631 11.8838 24.1334C12.1135 23.9037 12.4251 23.7746 12.75 23.7746L36.025 23.7746C36.3499 23.7746 36.6615 23.9037 36.8912 24.1334C37.1209 24.3631 37.25 24.6747 37.25 24.9996Z" fill="white"/>
</svg>
