<svg width="23" height="23" viewBox="0 0 23 23" fill="none" xmlns="http://www.w3.org/2000/svg">
<path opacity="0.5" d="M8.67483 4.3125C8.625 4.86642 8.625 5.56217 8.625 6.44192V16.5581C8.625 17.4378 8.625 18.1336 8.67483 18.6875H7.66667C5.40787 18.6875 4.278 18.6875 3.5765 17.986C2.875 17.2835 2.875 16.1546 2.875 13.8958V9.10417C2.875 6.84537 2.875 5.7155 3.5765 5.014C4.278 4.3125 5.40787 4.3125 7.66667 4.3125H8.67483Z" fill="white"/>
<path fill-rule="evenodd" clip-rule="evenodd" d="M9.30254 2.30893C8.625 2.90981 8.625 4.00902 8.625 6.20648V16.7941C8.625 18.9916 8.625 20.0908 9.30254 20.6917C9.98008 21.2926 11.016 21.1124 13.088 20.7511L15.3209 20.362C17.6151 19.9614 18.7622 19.7611 19.4436 18.9197C20.125 18.0774 20.125 16.8603 20.125 14.4251V8.57548C20.125 6.14131 20.125 4.92423 19.4446 4.08185C18.7623 3.24043 17.6142 3.04014 15.3199 2.64052L13.0889 2.25048C11.017 1.88918 9.98104 1.70902 9.3035 2.30989M12.2197 10.4989C12.2197 10.0829 11.8977 9.74656 11.501 9.74656C11.1042 9.74656 10.7822 10.0829 10.7822 10.4979V12.5046C10.7822 12.9196 11.1042 13.256 11.501 13.256C11.8977 13.256 12.2197 12.9196 12.2197 12.5046V10.4989Z" fill="white"/>
</svg>
