<svg width="24" height="24" viewBox="0 0 24 24" fill="none" xmlns="http://www.w3.org/2000/svg">
<path d="M18.9998 10.9994H13.4138L14.7068 9.70643C14.8889 9.51783 14.9897 9.26523 14.9875 9.00303C14.9852 8.74083 14.88 8.49002 14.6946 8.30461C14.5092 8.1192 14.2584 8.01403 13.9962 8.01176C13.734 8.00948 13.4814 8.11027 13.2928 8.29243L10.2928 11.2924C10.1053 11.48 10 11.7343 10 11.9994C10 12.2646 10.1053 12.5189 10.2928 12.7064L13.2928 15.7064C13.4814 15.8886 13.734 15.9894 13.9962 15.9871C14.2584 15.9848 14.5092 15.8797 14.6946 15.6942C14.88 15.5088 14.9852 15.258 14.9875 14.9958C14.9897 14.7336 14.8889 14.481 14.7068 14.2924L13.4138 12.9994H18.9998C19.265 12.9994 19.5194 12.8941 19.7069 12.7065C19.8944 12.519 19.9998 12.2646 19.9998 11.9994C19.9998 11.7342 19.8944 11.4799 19.7069 11.2923C19.5194 11.1048 19.265 10.9994 18.9998 10.9994Z" fill="white"/>
<path opacity="0.5" d="M13.414 13L14.707 14.293C14.8025 14.3852 14.8787 14.4956 14.9311 14.6176C14.9835 14.7396 15.0111 14.8708 15.0123 15.0036C15.0134 15.1364 14.9881 15.2681 14.9378 15.391C14.8875 15.5139 14.8133 15.6255 14.7194 15.7194C14.6255 15.8133 14.5139 15.8875 14.391 15.9378C14.2681 15.9881 14.1364 16.0134 14.0036 16.0123C13.8708 16.0111 13.7396 15.9835 13.6176 15.9311C13.4956 15.8787 13.3852 15.8025 13.293 15.707L10.293 12.707C10.1055 12.5195 10.0002 12.2652 10.0002 12C10.0002 11.7348 10.1055 11.4805 10.293 11.293L13.293 8.293C13.4816 8.11084 13.7342 8.01005 13.9964 8.01233C14.2586 8.0146 14.5094 8.11977 14.6948 8.30518C14.8802 8.49059 14.9854 8.7414 14.9877 9.0036C14.99 9.2658 14.8892 9.5184 14.707 9.707L13.414 11H18V5C17.9992 4.20459 17.6829 3.44199 17.1204 2.87956C16.558 2.31712 15.7954 2.00079 15 2H7C6.20459 2.00079 5.44199 2.31712 4.87956 2.87956C4.31712 3.44199 4.00079 4.20459 4 5V19C4.00079 19.7954 4.31712 20.558 4.87956 21.1204C5.44199 21.6829 6.20459 21.9992 7 22H15C15.7954 21.9992 16.558 21.6829 17.1204 21.1204C17.6829 20.558 17.9992 19.7954 18 19V13H13.414Z" fill="white"/>
</svg>
