<svg width="105" height="105" viewBox="0 0 105 105" fill="none" xmlns="http://www.w3.org/2000/svg">
<path opacity="0.2" d="M62.3438 32.8125V72.1875C62.3438 73.0577 61.9981 73.8923 61.3827 74.5077C60.7673 75.1231 59.9327 75.4688 59.0625 75.4688H16.4062C15.536 75.4688 14.7014 75.1231 14.0861 74.5077C13.4707 73.8923 13.125 73.0577 13.125 72.1875V32.8125C13.125 31.9423 13.4707 31.1077 14.0861 30.4923C14.7014 29.877 15.536 29.5312 16.4062 29.5312H59.0625C59.9327 29.5312 60.7673 29.877 61.3827 30.4923C61.9981 31.1077 62.3438 31.9423 62.3438 32.8125Z" fill="white"/>
<path d="M82.0312 9.84375H29.5312C27.7908 9.84375 26.1216 10.5352 24.8909 11.7659C23.6602 12.9966 22.9688 14.6658 22.9688 16.4062V26.25H16.4062C14.6658 26.25 12.9966 26.9414 11.7659 28.1721C10.5352 29.4028 9.84375 31.072 9.84375 32.8125V72.1875C9.84375 73.928 10.5352 75.5972 11.7659 76.8279C12.9966 78.0586 14.6658 78.75 16.4062 78.75H22.9688V88.5938C22.9688 90.3342 23.6602 92.0034 24.8909 93.2341C26.1216 94.4648 27.7908 95.1562 29.5312 95.1562H82.0312C83.7717 95.1562 85.4409 94.4648 86.6716 93.2341C87.9023 92.0034 88.5938 90.3342 88.5938 88.5938V16.4062C88.5938 14.6658 87.9023 12.9966 86.6716 11.7659C85.4409 10.5352 83.7717 9.84375 82.0312 9.84375ZM65.625 42.6562H82.0312V62.3438H65.625V42.6562ZM82.0312 36.0938H65.625V32.8125C65.625 31.072 64.9336 29.4028 63.7029 28.1721C62.4722 26.9414 60.803 26.25 59.0625 26.25V16.4062H82.0312V36.0938ZM29.5312 16.4062H52.5V26.25H29.5312V16.4062ZM16.4062 32.8125H59.0625V72.1875H16.4062V32.8125ZM29.5312 78.75H52.5V88.5938H29.5312V78.75ZM59.0625 88.5938V78.75C60.803 78.75 62.4722 78.0586 63.7029 76.8279C64.9336 75.5972 65.625 73.928 65.625 72.1875V68.9062H82.0312V88.5938H59.0625ZM27.0088 60.2438L33.4646 52.5L27.0088 44.7563C26.4518 44.0873 26.1834 43.2244 26.2627 42.3575C26.3419 41.4906 26.7623 40.6907 27.4312 40.1338C28.1002 39.5768 28.9631 39.3084 29.83 39.3877C30.6969 39.4669 31.4968 39.8873 32.0537 40.5562L37.7344 47.373L43.415 40.5562C43.6908 40.225 44.0291 39.9513 44.4107 39.7508C44.7922 39.5503 45.2095 39.4269 45.6388 39.3877C46.068 39.3484 46.5008 39.3941 46.9123 39.5222C47.3239 39.6502 47.7062 39.858 48.0375 40.1338C48.3688 40.4096 48.6424 40.7479 48.8429 41.1294C49.0435 41.511 49.1668 41.9283 49.2061 42.3575C49.2453 42.7868 49.1996 43.2195 49.0716 43.6311C48.9436 44.0427 48.7357 44.425 48.46 44.7563L42.0041 52.5L48.46 60.2438C49.0169 60.9128 49.2853 61.7756 49.2061 62.6425C49.1268 63.5094 48.7065 64.3093 48.0375 64.8662C47.3685 65.4232 46.5057 65.6916 45.6388 65.6123C44.7719 65.5331 43.972 65.1127 43.415 64.4437L37.7344 57.627L32.0537 64.4437C31.4968 65.1127 30.6969 65.5331 29.83 65.6123C28.9631 65.6916 28.1002 65.4232 27.4312 64.8662C26.7623 64.3093 26.3419 63.5094 26.2627 62.6425C26.1834 61.7756 26.4518 60.9128 27.0088 60.2438Z" fill="white"/>
</svg>
